:FULLY-SPECIFIED
:FORCE-ALL-JOINTS-BE-3DOF
:DEGREES
408
root 7.4042 13.7305 -34.132 160.96 74.566 154.198
lfemur 19.1424 -3.04754 -9.94532
ltibia 22.802 0 0
lfoot -22.9185 33.7683 0
ltoes -26.6181 0 0
rfemur -67.5855 -17.3936 8.80451
rtibia 82.0069 0 0
rfoot -16.2251 13.8916 0
rtoes 9.50211 0 0
lowerback 8.16186 5.20838 -11.8744
upperback -2.60302 5.57729 -1.4756
thorax -8.42376 3.28449 4.10211
lowerneck 0.904979 -12.073 -11.6433
upperneck 2.87631 -16.4399 9.785
head 2.4116 -8.21143 4.19696
lclavicle -3.31164e-14 5.74422e-15 0
lhumerus -71.583 -19.1806 105.521
lradius 100.59 0 0
lwrist 51.117 0 0
lhand -9.59887 43.0939 0
lfingers 7.12502 0 0
lthumb 16.3711 72.4453 0
rclavicle -3.31164e-14 5.74422e-15 0
rhumerus 50.201 -5.42899 -59.5269
rradius 17.5261 0 0
rwrist 20.7394 0 0
rhand -22.9101 -33.2803 0
rfingers 7.12502 0 0
rthumb 3.53109 -63.2621 0
409
root 7.33836 13.7468 -34.1711 160.447 74.7588 153.851
lfemur 19.0059 -2.92025 -10.048
ltibia 23.0926 0 0
lfoot -23.0552 33.5834 0
ltoes -26.6729 0 0
rfemur -67.2003 -17.0869 8.65466
rtibia 81.1912 0 0
rfoot -15.63 13.6799 0
rtoes 9.70829 0 0
lowerback 8.23454 5.11058 -11.8194
upperback -2.59449 5.45349 -1.38294
thorax -8.43539 3.22514 4.19969
lowerneck 0.79722 -11.9375 -11.5592
upperneck 2.98379 -16.247 9.62474
head 2.44052 -8.11759 4.14322
lclavicle -3.59461e-14 2.78822e-15 0
lhumerus -71.1659 -19.4132 105.809
lradius 100.494 0 0
lwrist 51.111 0 0
lhand -9.67015 43.0397 0
lfingers 7.12502 0 0
lthumb 16.3021 72.3899 0
rclavicle -3.59461e-14 2.78822e-15 0
rhumerus 49.9024 -4.93061 -59.5224
rradius 18.2763 0 0
rwrist 20.0057 0 0
rhand -22.5303 -33.234 0
rfingers 7.12502 0 0
rthumb 3.89751 -63.1992 0
410
root 7.26579 13.7648 -34.2127 159.893 74.9653 153.478
lfemur 18.8456 -2.78742 -10.1598
ltibia 23.4225 0 0
lfoot -23.2022 33.3838 0
ltoes -26.7208 0 0
rfemur -66.7793 -16.7497 8.4895
rtibia 80.2972 0 0
rfoot -14.9767 13.4522 0
rtoes 9.92692 0 0
lowerback 8.31687 5.00472 -11.7594
upperback -2.58404 5.31914 -1.28305
thorax -8.4486 3.16067 4.30452
lowerneck 0.680292 -11.7916 -11.4674
upperneck 3.09856 -16.0392 9.45189
head 2.47153 -8.01644 4.08509
lclavicle -3.88633e-14 -3.18157e-16 0
lhumerus -70.712 -19.6709 106.122
lradius 100.391 0 0
lwrist 51.1045 0 0
lhand -9.75317 42.9806 0
lfingers 7.12502 0 0
lthumb 16.2218 72.33 0
rclavicle -3.88633e-14 -3.18157e-16 0
rhumerus 49.5789 -4.39482 -59.5198
rradius 19.0923 0 0
rwrist 19.2145 0 0
rhand -22.1197 -33.1872 0
rfingers 7.12502 0 0
rthumb 4.29364 -63.1343 0
411
root 7.1863 13.7847 -34.2571 159.297 75.1858 153.078
lfemur 18.6608 -2.64898 -10.2808
ltibia 23.7931 0 0
lfoot -23.3599 33.1691 0
ltoes -26.7615 0 0
rfemur -66.3214 -16.3813 8.30861
rtibia 79.3225 0 0
rfoot -14.2636 13.2081 0
rtoes 10.1582 0 0
lowerback 8.40914 4.89058 -11.6943
upperback -2.57162 5.17394 -1.17575
thorax -8.46346 3.09095 4.41678
lowerneck 0.553975 -11.6349 -11.3675
upperneck 3.2208 -15.8159 9.26617
head 2.50468 -7.9078 4.02246
lclavicle -4.1869e-14 -3.57812e-15 0
lhumerus -70.2204 -19.9544 106.459
lradius 100.279 0 0
lwrist 51.0973 0 0
lhand -9.84827 42.9166 0
lfingers 7.12502 0 0
lthumb 16.1298 72.2654 0
rclavicle -4.1869e-14 -3.57812e-15 0
rhumerus 49.2299 -3.82067 -59.519
rradius 19.9761 0 0
rwrist 18.3642 0 0
rhand -21.6774 -33.1399 0
rfingers 7.12502 0 0
rthumb 4.72027 -63.0674 0
412
root 7.18074 13.7846 -34.2642 159.404 75.1936 153.202
lfemur 18.5856 -2.68123 -10.2595
ltibia 23.9429 0 0
lfoot -23.3613 33.1257 0
ltoes -26.8201 0 0
rfemur -66.2835 -16.3545 8.30455
rtibia 79.253 0 0
rfoot -14.2296 13.1713 0
rtoes 10.0938 0 0
lowerback 8.42486 4.87654 -11.6683
upperback -2.56393 5.15964 -1.15588
thorax -8.4613 3.08307 4.42663
lowerneck 0.569814 -11.6388 -11.3752
upperneck 3.21173 -15.8225 9.28615
head 2.50276 -7.91161 4.03018
lclavicle -4.21172e-14 -4.08246e-15 0
lhumerus -70.1752 -20.0297 106.443
lradius 100.281 0 0
lwrist 51.0711 0 0
lhand -9.80615 42.9158 0
lfingers 7.12502 0 0
lthumb 16.1704 72.2614 0
rclavicle -4.21172e-14 -4.08246e-15 0
rhumerus 49.1475 -3.77547 -59.4212
rradius 20.143 0 0
rwrist 18.0765 0 0
rhand -21.5927 -33.1773 0
rfingers 7.12502 0 0
rthumb 4.80196 -63.1005 0
413
root 7.17501 13.7845 -34.2708 159.496 75.2068 153.316
lfemur 18.5005 -2.72866 -10.2313
ltibia 24.1212 0 0
lfoot -23.3611 33.0763 0
ltoes -26.8845 0 0
rfemur -66.2443 -16.322 8.29648
rtibia 79.1648 0 0
rfoot -14.1849 13.1365 0
rtoes 10.014 0 0
lowerback 8.44481 4.8615 -11.6387
upperback -2.55427 5.1443 -1.13428
thorax -8.45915 3.0745 4.4364
lowerneck 0.586965 -11.6432 -11.3827
upperneck 3.20064 -15.8298 9.30794
head 2.50015 -7.9158 4.03852
lclavicle -4.22859e-14 -4.58471e-15 0
lhumerus -70.1346 -20.1136 106.427
lradius 100.288 0 0
lwrist 51.0456 0 0
lhand -9.76298 42.915 0
lfingers 7.12502 0 0
lthumb 16.2119 72.2574 0
rclavicle -4.22859e-14 -4.58471e-15 0
rhumerus 49.0483 -3.73294 -59.3165
rradius 20.3231 0 0
rwrist 17.7546 0 0
rhand -21.5009 -33.2261 0
rfingers 7.12502 0 0
rthumb 4.89049 -63.1449 0
414
root 7.16891 13.7846 -34.277 159.576 75.2247 153.422
lfemur 18.4037 -2.79102 -10.1967
ltibia 24.3294 0 0
lfoot -23.3592 33.0209 0
ltoes -26.9539 0 0
rfemur -66.2028 -16.2834 8.2844
rtibia 79.0574 0 0
rfoot -14.1289 13.103 0
rtoes 9.91848 0 0
lowerback 8.46925 4.84533 -11.6055
upperback -2.54256 5.12777 -1.11086
thorax -8.45704 3.06516 4.44614
lowerneck 0.605572 -11.6483 -11.39
upperneck 3.18736 -15.8381 9.33181
head 2.49684 -7.92047 4.04757
lclavicle -4.23703e-14 -5.08295e-15 0
lhumerus -70.0972 -20.2073 106.41
lradius 100.298 0 0
lwrist 51.0202 0 0
lhand -9.71877 42.9142 0
lfingers 7.12502 0 0
lthumb 16.2545 72.2532 0
rclavicle -4.23703e-14 -5.08295e-15 0
rhumerus 48.9324 -3.6926 -59.2042
rradius 20.5181 0 0
rwrist 17.3973 0 0
rhand -21.4014 -33.2863 0
rfingers 7.12502 0 0
rthumb 4.98647 -63.2005 0
415
root 7.16223 13.7848 -34.2827 159.646 75.2467 153.525
lfemur 18.2936 -2.86808 -10.1557
ltibia 24.5692 0 0
lfoot -23.3559 32.9592 0
ltoes -27.0276 0 0
rfemur -66.1582 -16.2383 8.26833
rtibia 78.9304 0 0
rfoot -14.0612 13.0702 0
rtoes 9.80705 0 0
lowerback 8.49844 4.82791 -11.5684
upperback -2.52872 5.10988 -1.08548
thorax -8.45498 3.05497 4.45592
lowerneck 0.625779 -11.6543 -11.3971
upperneck 3.17174 -15.8475 9.35805
head 2.49283 -7.92572 4.05741
lclavicle -4.23654e-14 -5.57525e-15 0
lhumerus -70.0617 -20.3117 106.392
lradius 100.312 0 0
lwrist 50.9944 0 0
lhand -9.67349 42.9133 0
lfingers 7.12502 0 0
lthumb 16.2981 72.2489 0
rclavicle -4.23654e-14 -5.57525e-15 0
rhumerus 48.8001 -3.65395 -59.0834
rradius 20.73 0 0
rwrist 17.0032 0 0
rhand -21.2936 -33.3579 0
rfingers 7.12502 0 0
rthumb 5.09053 -63.2672 0
416
root 7.15478 13.7852 -34.2882 159.711 75.2721 153.627
lfemur 18.1685 -2.95959 -10.1089
ltibia 24.8421 0 0
lfoot -23.351 32.8911 0
ltoes -27.1048 0 0
rfemur -66.1097 -16.1862 8.24827
rtibia 78.7831 0 0
rfoot -13.9813 13.0376 0
rtoes 9.67946 0 0
lowerback 8.53265 4.80912 -11.5272
upperback -2.51267 5.09048 -1.05803
thorax -8.45302 3.04385 4.46582
lowerneck 0.647728 -11.6612 -11.4041
upperneck 3.15361 -15.8583 9.38691
head 2.4881 -7.93164 4.06815
lclavicle -4.22664e-14 -6.05967e-15 0
lhumerus -70.0269 -20.4281 106.373
lradius 100.328 0 0
lwrist 50.9678 0 0
lhand -9.62715 42.9123 0
lfingers 7.12502 0 0
lthumb 16.3428 72.2444 0
rclavicle -4.22664e-14 -6.05967e-15 0
rhumerus 48.6515 -3.61652 -58.9533
rradius 20.9607 0 0
rwrist 16.5709 0 0
rhand -21.1767 -33.4408 0
rfingers 7.12502 0 0
rthumb 5.2033 -63.3449 0
417
root 7.14636 13.7857 -34.2935 159.774 75.3004 153.733
lfemur 18.0268 -3.06531 -10.0563
ltibia 25.1496 0 0
lfoot -23.3447 32.8167 0
ltoes -27.1848 0 0
rfemur -66.0563 -16.1268 8.22422
rtibia 78.6151 0 0
rfoot -13.8889 13.0046 0
rtoes 9.53544 0 0
lowerback 8.57212 4.78883 -11.4819
upperback -2.49433 5.06942 -1.02841
thorax -8.45118 3.03171 4.47589
lowerneck 0.671563 -11.6691 -11.4113
upperneck 3.1328 -15.8705 9.4187
head 2.48264 -7.93834 4.07986
lclavicle -4.20683e-14 -6.53429e-15 0
lhumerus -69.9913 -20.5573 106.353
lradius 100.348 0 0
lwrist 50.9399 0 0
lhand -9.57973 42.9111 0
lfingers 7.12502 0 0
lthumb 16.3884 72.2396 0
rclavicle -4.20683e-14 -6.53429e-15 0
rhumerus 48.4866 -3.57982 -58.8132
rradius 21.2121 0 0
rwrist 16.0993 0 0
rhand -21.0502 -33.535 0
rfingers 7.12502 0 0
rthumb 5.3254 -63.4336 0
418
root 7.13677 13.7865 -34.2987 159.838 75.3309 153.844
lfemur 17.8667 -3.18499 -9.99833
ltibia 25.4934 0 0
lfoot -23.3369 32.7358 0
ltoes -27.2669 0 0
rfemur -65.9973 -16.0595 8.19619
rtibia 78.4259 0 0
rfoot -13.7834 12.9706 0
rtoes 9.37476 0 0
lowerback 8.61713 4.76692 -11.4323
upperback -2.47362 5.04654 -0.996482
thorax -8.44948 3.01848 4.4862
lowerneck 0.697428 -11.6783 -11.4185
upperneck 3.10916 -15.8843 9.45367
head 2.47645 -7.9459 4.09263
lclavicle -4.17662e-14 -6.99719e-15 0
lhumerus -69.9538 -20.7005 106.331
lradius 100.37 0 0
lwrist 50.9101 0 0
lhand -9.53123 42.9098 0
lfingers 7.12502 0 0
lthumb 16.4351 72.2346 0
rclavicle -4.17662e-14 -6.99719e-15 0
rhumerus 48.3057 -3.54335 -58.6623
rradius 21.486 0 0
rwrist 15.5869 0 0
rhand -20.9133 -33.6405 0
rfingers 7.12502 0 0
rthumb 5.45745 -63.5331 0
